<svg width="640" height="180" viewBox="0 0 640 180" fill="none" xmlns="http://www.w3.org/2000/svg" role="img" aria-labelledby="valenceLogoTitle valenceLogoDesc">
  <title id="valenceLogoTitle">Valence logo</title>
  <desc id="valenceLogoDesc">A premium finance research logo with a geometric valuation frame and ascending intrinsic value line.</desc>
  <defs>
    <linearGradient id="valenceGold" x1="28" y1="28" x2="152" y2="152" gradientUnits="userSpaceOnUse">
      <stop stop-color="#D9BC7A"/>
      <stop offset="1" stop-color="#B78D41"/>
    </linearGradient>
    <linearGradient id="valenceInk" x1="0" y1="0" x2="1" y2="1">
      <stop stop-color="#14263C"/>
      <stop offset="1" stop-color="#20364F"/>
    </linearGradient>
  </defs>

  <rect x="20" y="20" width="140" height="140" rx="28" fill="url(#valenceInk)"/>
  <rect x="38" y="38" width="104" height="104" rx="18" stroke="#F7F3EA" stroke-opacity="0.18" stroke-width="2"/>

  <path d="M64 48V132" stroke="#F7F3EA" stroke-opacity="0.16" stroke-width="2"/>
  <path d="M98 48V132" stroke="#F7F3EA" stroke-opacity="0.11" stroke-width="2"/>
  <path d="M132 48V132" stroke="#F7F3EA" stroke-opacity="0.08" stroke-width="2"/>
  <path d="M48 64H132" stroke="#F7F3EA" stroke-opacity="0.12" stroke-width="2"/>
  <path d="M48 98H132" stroke="#F7F3EA" stroke-opacity="0.09" stroke-width="2"/>
  <path d="M48 132H132" stroke="#F7F3EA" stroke-opacity="0.07" stroke-width="2"/>

  <path d="M52 118L78 96L96 102L118 74L142 58" stroke="url(#valenceGold)" stroke-width="8" stroke-linecap="round" stroke-linejoin="round"/>
  <circle cx="142" cy="58" r="7" fill="#F4E7C3"/>
  <path d="M140 44L154 58L140 72" stroke="#F4E7C3" stroke-width="4" stroke-linecap="round" stroke-linejoin="round"/>

  <text x="196" y="82" fill="#10211A" font-family="Georgia, 'Times New Roman', serif" font-size="62" font-weight="700" letter-spacing="2">VALENCE</text>
  <text x="198" y="118" fill="#55667A" font-family="'IBM Plex Sans', 'Avenir Next', 'Segoe UI', sans-serif" font-size="18" font-weight="600" letter-spacing="3.2">PREMIUM FINANCE RESEARCH</text>
  <path d="M198 134H452" stroke="#C8A96B" stroke-width="2" stroke-linecap="round"/>
</svg>
